# xmcd
#
# Track frame offsets: 
#        150
#        16712
#        33049
#        43394
#        59639
#        76062
#        90374
#        104426
#        126505
#        139496
#        151820
#        159307
#
# Disc length: 2332 seconds
#
# Revision: 5
# Processed by: cddbd v1.5.2PL0 Copyright (c) Steve Scherf et al.
# Submitted via: ExactAudioCopyFreeDBPlugin 1.0
#
DISCID=92091a0c
DTITLE=Willie Nelson - Greatest Hits: Live In Concert
DYEAR=1996
DGENRE=Country
TTITLE0=Georgia On My Mind (Live In Concert)
TTITLE1=Stardust (Live In Concert)
TTITLE2=On The Road Again (Live In Concert)
TTITLE3=You Were Always On My Mind (Live In Concert)
TTITLE4=Angel Flying Too Close To The Ground (Live In Concert)
TTITLE5=Good Hearted Woman (Live In Concert)
TTITLE6=Blue Eyes Crying In The Rain (Live In Concert)
TTITLE7=City Of New Orleans (Live In Concert)
TTITLE8=To AllThe Girls I've Loved Before (Live In Concert)
TTITLE9=Seven Spanish Angels (Live In Concert)
TTITLE10=Lukenbach Texas (Live In Concert)
TTITLE11=Whiskey River (Live In Concert)
EXTD=
EXTT0=
EXTT1=
EXTT2=
EXTT3=
EXTT4=
EXTT5=
EXTT6=
EXTT7=
EXTT8=
EXTT9=
EXTT10=
EXTT11=
PLAYORDER=
